<?xml version="1.0" encoding="UTF-8" standalone="no" ?>
<!DOCTYPE svg PUBLIC "-//W3C//DTD SVG 1.1//EN" "http://www.w3.org/Graphics/SVG/1.1/DTD/svg11.dtd">
<svg xmlns="http://www.w3.org/2000/svg" xmlns:xlink="http://www.w3.org/1999/xlink" version="1.1" width="1080" height="1080" viewBox="-38.46 -20 1080 1080" xml:space="preserve">
<desc>Created with Fabric.js 5.2.4</desc>
<defs>
</defs>
<rect x="0" y="0" width="100%" height="100%" fill="transparent"></rect>
<g transform="matrix(1 0 0 1 540 540)" id="720c304c-f446-45ab-950f-75eaaaa60b46"  >
<rect style="stroke: none; stroke-width: 1; stroke-dasharray: none; stroke-linecap: butt; stroke-dashoffset: 0; stroke-linejoin: miter; stroke-miterlimit: 4; fill: rgb(255,255,255); fill-rule: nonzero; opacity: 1; visibility: hidden;" vector-effect="non-scaling-stroke"  x="-540" y="-540" rx="0" ry="0" width="1080" height="1080" />
</g>
<g transform="matrix(1 0 0 1 540 540)" id="bffe6b5f-4e3b-4f22-a6b9-6ce4353a44a7"  >
</g>
<g transform="matrix(45 0 0 45 519.07 515.93)"  >
<path style="stroke: none; stroke-width: 0; stroke-dasharray: none; stroke-linecap: butt; stroke-dashoffset: 0; stroke-linejoin: miter; stroke-miterlimit: 4; fill: rgb(0,0,0); fill-rule: nonzero; opacity: 1;"  transform=" translate(-13, -12.04)" d="M 17 17 Q 17.625 17 18.063 16.562 Q 18.500999999999998 16.124000000000002 18.5 15.5 Q 18.5 14.875 18.062 14.437 Q 17.624000000000002 13.998999999999999 17 14 Q 16.375 14 15.937 14.438 Q 15.498999999999999 14.876000000000001 15.5 15.5 Q 15.5 16.125 15.938 16.563 Q 16.376 17.000999999999998 17 17 Z M 17 20 Q 17.794 20 18.435 19.647 Q 19.075 19.293999999999997 19.494999999999997 18.694 Q 18.924999999999997 18.349999999999998 18.299999999999997 18.175 Q 17.675 18 17 18 Q 16.325 18 15.7 18.175 Q 15.075 18.35 14.506 18.695 Q 14.925 19.295 15.566 19.647 Q 16.205 20 17 20 Z M 12 20.962 Q 8.987 20.067 6.993 17.311 Q 5 14.554 5 11.1 L 5 5.692 L 12 3.077 L 19 5.692 L 19 11.347999999999999 Q 18.775 11.262999999999998 18.506 11.197999999999999 Q 18.236 11.130999999999998 18 11.075 L 18 6.381 L 12 4.15 L 6 6.38 L 6 11.1 Q 6 12.583 6.438 13.94 Q 6.875 15.298 7.63 16.438 Q 8.385 17.576999999999998 9.415 18.427999999999997 Q 10.444999999999999 19.278999999999996 11.613 19.726999999999997 L 11.671 19.706999999999997 Q 11.792 20.006999999999998 11.972999999999999 20.289999999999996 Q 12.152999999999999 20.572999999999997 12.383 20.820999999999994 Q 12.280999999999999 20.859999999999996 12.190999999999999 20.890999999999995 Q 12.100999999999999 20.921999999999993 11.999999999999998 20.960999999999995 Z M 17 21 Q 15.329 21 14.164 19.836 Q 12.998999999999999 18.671999999999997 13 17 Q 13 15.329 14.164 14.164 Q 15.328 12.998999999999999 17 13 Q 18.671 13 19.836 14.164 Q 21.000999999999998 15.328 21 17 Q 21 18.671 19.836 19.836 Q 18.671999999999997 21.000999999999998 17 21 Z M 12 11.938 Z" stroke-linecap="round" />
</g>
</svg>